<svg width="21" height="22" viewBox="0 0 21 22" fill="none" xmlns="http://www.w3.org/2000/svg">
<path d="M10.4913 1.95117C5.66125 1.95117 1.75 5.87117 1.75 10.7012C1.75 15.5312 5.66125 19.4512 10.4913 19.4512C15.33 19.4512 19.25 15.5312 19.25 10.7012C19.25 5.87117 15.33 1.95117 10.4913 1.95117ZM13.3175 15.4174L10.5 13.7199L7.6825 15.4174C7.35 15.6187 6.93875 15.3212 7.02625 14.9449L7.77 11.7424L5.29375 9.59867C5.005 9.34492 5.1625 8.86367 5.5475 8.82867L8.82 8.54867L10.0975 5.52992C10.2463 5.17117 10.7537 5.17117 10.9025 5.52992L12.18 8.53992L15.4525 8.81992C15.8375 8.85492 15.995 9.33617 15.6975 9.58992L13.2212 11.7337L13.965 14.9449C14.0525 15.3212 13.65 15.6187 13.3175 15.4174Z" fill="#E8E8E8"/>
</svg>
